
  <svg width="273" height="48" viewBox="0 0 1456 256" fill="none" xmlns="http://www.w3.org/2000/svg" xmlns:xlink="http://www.w3.org/1999/xlink" version="1.1">
    
        <g transform="translate(0, 0)">
          <svg xmlns="http://www.w3.org/2000/svg" width="256" height="256" fill="none" viewBox="0 0 256 256"><rect width="256" height="256" fill="#2396ED" rx="60"/><path fill="#fff" d="M141.187 122.123H161.904V103.379H141.187V122.123ZM116.525 122.123H137.241V103.379H116.525V122.123ZM92.3554 122.123H113.072V103.379H92.3554V122.123ZM68.1859 122.123H88.4093V103.379H68.1859V122.123ZM43.5233 122.123H64.2399V103.379H43.5233V122.123ZM68.1859 99.4333H88.4093V80.6896H68.1859V99.4333ZM92.3554 99.4333H113.072V80.6896H92.3554V99.4333ZM116.525 99.4333H137.241V80.6896H116.525V99.4333ZM116.525 76.7436H137.241V58H116.525V76.7436ZM228 113.738C228 113.738 219.121 105.352 200.871 108.312C198.898 94.0075 183.607 85.6222 183.607 85.6222C183.607 85.6222 169.303 102.886 179.661 122.123C176.702 123.603 171.769 125.576 164.37 125.576H28.7257C26.2594 134.948 26.2594 197.097 94.3284 197.097C143.16 197.097 179.661 174.408 196.925 132.974C222.574 134.948 228 113.738 228 113.738Z"/></svg>
        </g>
         
        <g transform="translate(300, 0)">
          <svg xmlns="http://www.w3.org/2000/svg" width="256" height="256" fill="none" viewBox="0 0 256 256"><rect width="256" height="256" fill="#F03C2E" rx="60"/><g clip-path="url(#clip0_7_283)"><path fill="#fff" d="M224.225 119.094L136.906 31.775C135.711 30.5787 134.291 29.6298 132.729 28.9824C131.166 28.3349 129.491 28.0017 127.8 28.0017C126.109 28.0017 124.434 28.3349 122.871 28.9824C121.309 29.6298 119.889 30.5787 118.694 31.775L100.569 49.9L123.569 72.9C128.919 71.025 135.044 72.3062 139.306 76.5687C141.335 78.6014 142.752 81.1638 143.394 83.9632C144.036 86.7626 143.878 89.6862 142.937 92.4L165.106 114.569C170.469 112.719 176.656 113.912 180.937 118.206C182.361 119.63 183.49 121.32 184.26 123.18C185.03 125.04 185.426 127.033 185.426 129.046C185.425 131.059 185.029 133.052 184.258 134.912C183.487 136.771 182.358 138.461 180.934 139.884C179.511 141.308 177.821 142.436 175.961 143.206C174.101 143.977 172.108 144.373 170.095 144.372C168.082 144.372 166.088 143.975 164.229 143.205C162.369 142.434 160.679 141.305 159.256 139.881C154.756 135.381 153.644 128.756 155.919 123.212L135.244 102.537V156.944C136.745 157.686 138.116 158.666 139.306 159.844C140.729 161.267 141.858 162.956 142.629 164.816C143.399 166.675 143.795 168.668 143.795 170.681C143.795 172.694 143.399 174.687 142.629 176.546C141.858 178.406 140.729 180.096 139.306 181.519C137.883 182.942 136.193 184.071 134.334 184.841C132.474 185.611 130.481 186.008 128.469 186.008C126.456 186.008 124.463 185.611 122.604 184.841C120.744 184.071 119.054 182.942 117.631 181.519C116.206 180.096 115.076 178.407 114.305 176.548C113.533 174.688 113.136 172.694 113.136 170.681C113.136 168.668 113.533 166.675 114.305 164.815C115.076 162.955 116.206 161.266 117.631 159.844C119.112 158.369 120.756 157.25 122.65 156.5V101.587C120.825 100.837 119.112 99.7312 117.631 98.2437C115.479 96.0943 114.016 93.3526 113.428 90.3684C112.841 87.3841 113.155 84.2924 114.331 81.4875L91.6437 58.8125L31.7687 118.625C30.5716 119.821 29.6219 121.241 28.9739 122.804C28.3259 124.367 27.9924 126.042 27.9924 127.734C27.9924 129.426 28.3259 131.102 28.9739 132.665C29.6219 134.228 30.5716 135.648 31.7687 136.844L119.094 224.156C120.289 225.352 121.709 226.301 123.271 226.949C124.834 227.596 126.509 227.929 128.2 227.929C129.891 227.929 131.566 227.596 133.129 226.949C134.691 226.301 136.111 225.352 137.306 224.156L224.225 137.375C225.422 136.179 226.372 134.759 227.02 133.196C227.668 131.633 228.001 129.958 228.001 128.266C228.001 126.574 227.668 124.898 227.02 123.335C226.372 121.772 225.422 120.352 224.225 119.156"/></g><defs><clipPath id="clip0_7_283"><rect width="200" height="200" fill="#fff" transform="translate(28 28)"/></clipPath></defs></svg>
        </g>
         
        <g transform="translate(600, 0)">
          <svg width="256" height="256" viewBox="0 0 256 256" fill="none" xmlns="http://www.w3.org/2000/svg">
<rect width="256" height="256" rx="60" fill="#242938"/>
<path d="M127.999 220.001L165.561 106.809H90.4414L127.999 219.997V220.001Z" fill="#E24329"/>
<path d="M127.999 220.001L90.4413 106.809H37.8003L127.999 219.997V220.001Z" fill="#FC6D26"/>
<path d="M37.8007 106.806L26.3827 141.206C25.3397 144.342 26.4767 147.78 29.2047 149.719L128 220.001L37.8007 106.809V106.806Z" fill="#FCA326"/>
<path d="M37.8003 106.805H90.4413L67.8173 38.6295C66.6533 35.1235 61.5823 35.1235 60.4203 38.6295L37.8003 106.808V106.805Z" fill="#E24329"/>
<path d="M128 220.001L165.562 106.809H218.205L128 219.997V220.001Z" fill="#FC6D26"/>
<path d="M218.203 106.806L229.619 141.206C230.66 144.342 229.519 147.78 226.795 149.719L128 220.001L218.203 106.809V106.806Z" fill="#FCA326"/>
<path d="M218.202 106.805H165.562L188.184 38.6305C189.349 35.1245 194.419 35.1245 195.581 38.6305L218.205 106.808L218.202 106.805Z" fill="#E24329"/>
</svg>

        </g>
         
        <g transform="translate(900, 0)">
          <svg xmlns="http://www.w3.org/2000/svg" width="256" height="256" fill="none" viewBox="0 0 256 256"><rect width="256" height="256" fill="#242938" rx="60"/><path fill="#23D96C" fill-rule="evenodd" d="M173.388 40.3156C171.78 39.3701 170.137 38.4841 168.456 37.6578C166.739 36.8333 164.97 36.029 163.176 35.3314C162.609 35.0979 162.051 34.8847 161.479 34.6685C159.912 34.092 158.333 33.4664 156.715 33.0023C145.147 29.3024 132.926 27.9558 120.805 29.0453C108.684 30.1349 96.9197 33.6375 86.2376 39.3373C75.5556 45.0372 66.1819 52.8134 58.6948 62.1867C51.2076 71.56 45.7652 82.3318 42.7036 93.8378C39.6419 105.344 39.0257 117.34 40.8927 129.088C42.7598 140.836 47.071 152.085 53.5599 162.144C60.0488 172.202 68.5783 180.856 78.6225 187.571C88.6667 194.287 100.013 198.922 111.961 201.191V226.123C165.324 218.262 212.578 176.893 216.099 122.578C218.221 89.8975 201.534 56.5334 173.388 40.3156V40.3156Z" clip-rule="evenodd"/><path fill="#173647" d="M107.156 231.583V204.982C84.7655 199.77 65.1135 186.71 51.9308 168.281C38.7482 149.852 32.9527 127.337 35.6449 105.01C38.3372 82.6837 49.3293 62.0999 66.5349 47.1662C83.7405 32.2326 105.962 23.9887 128.98 24.0001C138.911 23.9839 148.781 25.5205 158.215 28.5518C159.475 28.9092 160.785 29.3965 162.051 29.8692L163.152 30.2757C163.905 30.5639 164.472 30.7803 165.05 31.0196C166.638 31.6364 168.424 32.4205 170.573 33.4525C172.387 34.3442 174.144 35.2906 175.844 36.2919C205.064 53.1295 223.162 87.923 220.893 122.881C217.401 176.674 171.898 222.044 112.672 230.767L107.156 231.583ZM129.101 33.3832H128.986C108.016 33.3766 87.797 41.0008 72.2722 54.768C56.7475 68.5352 47.0311 87.4577 45.0197 107.843C43.0083 128.229 48.8455 148.616 61.3928 165.025C73.9402 181.434 92.2973 192.689 112.882 196.593L116.763 197.334V220.554C168.825 210.586 208.21 170.027 211.306 122.287C213.351 90.7626 197.139 59.4455 170.948 44.3634L170.906 44.3346C169.412 43.4698 167.86 42.6192 166.295 41.8496C164.415 40.9502 162.851 40.2556 161.405 39.6964C160.815 39.4514 160.328 39.2669 159.832 39.0795L158.631 38.6354C157.491 38.2117 156.411 37.8081 155.369 37.5112C146.894 34.7779 138.027 33.3835 129.101 33.3804V33.3832Z"/><path fill="#173647" fill-rule="evenodd" d="M111.176 71.5845C112.518 71.4228 113.879 71.586 115.141 72.0596C116.403 72.5331 117.525 73.3025 118.41 74.3C119.782 75.7631 120.905 77.4311 121.736 79.2409C124.688 85.5827 126.43 94.689 122.785 99.7942C118.948 98.8365 115.353 97.1196 112.224 94.7499C109.095 92.3802 106.497 89.4081 104.592 86.0178C103.627 84.16 103.085 82.1207 103.003 80.0393C103.066 77.8959 103.933 75.85 105.44 74.2909C106.948 72.7317 108.989 71.7684 111.176 71.5845V71.5845Z" clip-rule="evenodd"/><path fill="#173647" fill-rule="evenodd" d="M89.7486 93.2417C90.2397 93.2026 90.7333 93.2026 91.2244 93.2417C93.4977 93.2802 95.739 93.7706 97.812 94.683C104.37 97.4273 111.684 104.135 113.101 110.085C107.475 113.746 97.3424 113.446 90.7812 110.702C88.8271 109.775 86.9647 108.674 85.2176 107.413C83.8893 106.434 82.9034 105.078 82.3944 103.531C81.8853 101.984 81.8782 100.32 82.3742 98.7691C82.8701 97.2178 83.845 95.8541 85.165 94.8646C86.485 93.8751 88.086 93.3084 89.7486 93.2417V93.2417Z" clip-rule="evenodd"/><path fill="#173647" fill-rule="evenodd" d="M97.7964 139.006C95.74 139.966 93.488 140.459 91.2088 140.447C89.4495 140.648 87.6705 140.295 86.1316 139.438C84.5926 138.582 83.3744 137.267 82.6548 135.686C81.9352 134.105 81.7519 132.341 82.1316 130.651C82.5114 128.961 83.434 127.435 84.7654 126.294C86.3706 124.835 88.2651 123.714 90.3319 122.999C92.7418 121.998 95.3284 121.464 97.947 121.428C102.212 121.353 109.534 120.424 113.085 122.733C112.146 128.672 104.355 136.262 97.7964 139.006V139.006Z" clip-rule="evenodd"/><path fill="#173647" fill-rule="evenodd" d="M124.829 153.737C123.936 155.645 122.859 157.465 121.613 159.174C116.926 165.123 106.061 160.946 106.527 153.163C106.569 151.127 107.073 149.126 108.003 147.303C110.813 140.895 118.457 133.025 125.018 131.653C128.761 137.144 127.642 147.79 124.829 153.737Z" clip-rule="evenodd"/><path fill="#173647" fill-rule="evenodd" d="M136.308 79.0876C137.204 77.1796 138.285 75.3592 139.534 73.6509C140.42 72.6242 141.551 71.8261 142.828 71.3274C144.104 70.8287 145.487 70.6445 146.854 70.7911C149.109 70.9305 151.222 71.9164 152.75 73.5422C154.278 75.1679 155.103 77.3076 155.053 79.514C155.011 81.598 154.507 83.6485 153.577 85.5246C151.942 88.9096 149.592 91.9183 146.681 94.3527C143.771 96.7872 140.365 98.5925 136.689 99.6497C132.483 94.6252 133.498 85.4928 136.308 79.0876V79.0876Z" clip-rule="evenodd"/><path fill="#173647" fill-rule="evenodd" d="M140.411 159.177C139.07 157.687 137.983 155.996 137.191 154.169C134.381 147.764 134.478 138.176 138.224 133.14C144.782 134.515 151.656 141.327 154.457 147.735C155.387 149.61 155.89 151.658 155.933 153.74C156.402 160.603 145.562 164.668 140.411 159.177Z" clip-rule="evenodd"/><path fill="#173647" fill-rule="evenodd" d="M169.111 140.01C166.838 139.971 164.596 139.48 162.523 138.568C155.965 135.824 148.775 129.407 147.37 123.457C150.973 121.151 157.626 120.9 161.938 120.978C164.557 121.018 167.143 121.553 169.554 122.555C171.504 123.429 173.366 124.481 175.114 125.697C181.673 130.286 177.547 140.465 169.111 140.01Z" clip-rule="evenodd"/></svg>
        </g>
         
        <g transform="translate(1200, 0)">
          <svg width="256" height="256" viewBox="0 0 256 256" fill="none" xmlns="http://www.w3.org/2000/svg">
<g clip-path="url(#clip0_404_220)">
<rect width="256" height="256" rx="60" fill="#59B943"/>
<path fill-rule="evenodd" clip-rule="evenodd" d="M233.776 -6H256V261H253.934C254.456 261 254.956 260.793 255.326 260.425C255.695 260.057 255.902 259.557 255.902 259.037V33.7359C256.059 33.2777 256.026 32.7762 255.812 32.3417C255.598 31.9073 255.22 31.5755 254.76 31.4193C254.301 31.2631 253.798 31.2953 253.363 31.5088C252.927 31.7224 252.594 32.0997 252.438 32.5579L169.762 125.144C169.526 125.399 169.239 125.602 168.921 125.741C168.603 125.88 168.259 125.951 167.911 125.951C167.564 125.951 167.22 125.88 166.901 125.741C166.583 125.602 166.297 125.399 166.061 125.144L123.857 81.7174C123.499 81.2717 123.304 80.7177 123.304 80.1468C123.304 79.5758 123.499 79.0219 123.857 78.5762L137.793 60.75C138.027 60.4257 138.334 60.1615 138.69 59.9793C139.046 59.7971 139.441 59.702 139.841 59.702C140.241 59.702 140.635 59.7971 140.991 59.9793C141.347 60.1615 141.655 60.4257 141.888 60.75L165.51 86.8218C165.746 87.1025 166.041 87.3282 166.375 87.4831C166.708 87.6379 167.071 87.7182 167.439 87.7182C167.806 87.7182 168.17 87.6379 168.503 87.4831C168.836 87.3282 169.131 87.1025 169.368 86.8218L235.194 -3.17294C235.377 -3.4389 235.485 -3.74892 235.508 -4.07077C235.53 -4.39263 235.465 -4.71458 235.321 -5.00314C235.176 -5.29171 234.956 -5.53636 234.685 -5.71167C234.413 -5.88697 234.1 -5.98653 233.776 -6ZM1.96848 -6H0V-4.03676C0 -4.55745 0.207393 -5.0568 0.576554 -5.42498C0.945715 -5.79316 1.4464 -6 1.96848 -6ZM0 259.037V261H1.96848C1.4464 261 0.945715 260.793 0.576554 260.425C0.207393 260.057 0 259.557 0 259.037ZM168.968 163.04C164.08 162.892 159.315 164.577 155.619 167.761C151.923 170.944 149.568 175.392 149.02 180.222C148.996 180.316 148.994 180.414 149.014 180.508C149.034 180.603 149.076 180.691 149.137 180.767C149.198 180.842 149.275 180.902 149.364 180.943C149.452 180.983 149.549 181.003 149.646 181H188.369C188.458 181 188.547 180.982 188.628 180.946C188.71 180.91 188.783 180.857 188.842 180.791C188.901 180.725 188.946 180.647 188.972 180.562C188.998 180.477 189.006 180.388 188.995 180.3C188.614 175.383 186.298 170.813 182.549 167.581C178.8 164.35 173.92 162.718 168.968 163.04ZM26.1414 216.003C38.5828 226.905 54.7968 232.54 71.3376 231.709H71.2589C101.101 231.709 115.51 216.474 115.51 196.527C115.51 171.51 92.231 165.937 73.8707 161.541C61.9159 158.678 52.0466 156.316 52.0466 149.41C52.0466 142.813 57.7158 138.337 67.7944 138.337C78.7663 138.235 89.4405 141.894 98.0302 148.703C98.2841 148.92 98.5799 149.082 98.8994 149.18C99.2188 149.278 99.555 149.31 99.8872 149.273C100.219 149.236 100.54 149.132 100.831 148.966C101.121 148.801 101.373 148.577 101.573 148.31L111.258 134.882C111.696 134.428 111.941 133.823 111.941 133.193C111.941 132.564 111.696 131.959 111.258 131.505C99.6091 122.062 84.9224 117.152 69.9203 117.684C43.7789 117.684 28.0311 132.919 28.0311 151.216C28.0311 175.818 50.4299 181.123 68.6468 185.437C81.1317 188.394 91.6523 190.885 91.6523 198.805C91.6523 205.087 85.3532 211.055 72.44 211.055C60.1792 211.093 48.3607 206.49 39.3696 198.176C39.0915 198.007 38.7823 197.896 38.4602 197.847C38.1381 197.799 37.8096 197.816 37.4941 197.897C37.1786 197.977 36.8824 198.12 36.623 198.316C36.3636 198.513 36.1463 198.759 35.9838 199.04L26.1414 212.783C25.7483 213.228 25.5315 213.8 25.5315 214.393C25.5315 214.986 25.7483 215.558 26.1414 216.003ZM209.931 194.319C210.038 194.047 210.087 193.756 210.076 193.465L209.997 190.952C209.997 164.173 193.383 145.876 168.895 145.876C163.245 145.778 157.633 146.824 152.398 148.95C147.164 151.076 142.417 154.239 138.443 158.246C134.468 162.254 131.35 167.024 129.276 172.267C127.202 177.51 126.216 183.119 126.376 188.753C126.148 194.526 127.132 200.282 129.264 205.654C131.397 211.025 134.632 215.893 138.761 219.945C142.89 223.997 147.823 227.143 153.243 229.182C158.663 231.222 164.45 232.109 170.234 231.787C181.812 232.078 193.162 228.544 202.517 221.735C202.942 221.395 203.225 220.91 203.313 220.373C203.4 219.836 203.285 219.287 202.989 218.83L195.903 208.542C195.739 208.29 195.523 208.076 195.27 207.913C195.017 207.751 194.732 207.644 194.435 207.599C194.137 207.555 193.833 207.574 193.543 207.655C193.253 207.736 192.984 207.878 192.753 208.071C186.841 212.219 179.823 214.515 172.596 214.668C167.089 215.121 161.61 213.503 157.239 210.132C152.867 206.76 149.919 201.879 148.974 196.449C148.963 196.356 148.971 196.262 148.997 196.172C149.023 196.082 149.066 195.998 149.125 195.925C149.183 195.852 149.256 195.791 149.338 195.746C149.421 195.701 149.511 195.673 149.604 195.664H207.871C208.164 195.675 208.455 195.625 208.728 195.519C209 195.412 209.248 195.25 209.455 195.044C209.662 194.838 209.824 194.591 209.931 194.319Z" fill="white"/>
</g>
<defs>
<clipPath id="clip0_404_220">
<rect width="256" height="256" rx="60" fill="white"/>
</clipPath>
</defs>
</svg>

        </g>
        
  </svg>
  