
  <svg width="273" height="48" viewBox="0 0 1456 256" fill="none" xmlns="http://www.w3.org/2000/svg" xmlns:xlink="http://www.w3.org/1999/xlink" version="1.1">
    
        <g transform="translate(0, 0)">
          <svg xmlns="http://www.w3.org/2000/svg" width="256" height="256" fill="none" viewBox="0 0 256 256"><rect width="256" height="256" fill="#242938" rx="60"/><path fill="#00D8FF" d="M128.001 146.951C138.305 146.951 146.657 138.598 146.657 128.295C146.657 117.992 138.305 109.639 128.001 109.639C117.698 109.639 109.345 117.992 109.345 128.295C109.345 138.598 117.698 146.951 128.001 146.951Z"/><path fill-rule="evenodd" stroke="#00D8FF" stroke-width="8.911" d="M128.002 90.3633C153.05 90.3633 176.319 93.9575 193.864 99.9976C215.003 107.275 228 118.306 228 128.295C228 138.704 214.226 150.423 191.525 157.944C174.363 163.63 151.779 166.598 128.002 166.598C103.624 166.598 80.5389 163.812 63.1834 157.881C41.2255 150.376 28 138.506 28 128.295C28 118.387 40.4096 107.441 61.2515 100.175C78.8617 94.0353 102.705 90.3633 127.998 90.3633H128.002Z" clip-rule="evenodd"/><path fill-rule="evenodd" stroke="#00D8FF" stroke-width="8.911" d="M94.9811 109.438C107.495 87.7402 122.232 69.3783 136.23 57.1971C153.094 42.5206 169.144 36.7728 177.796 41.7623C186.813 46.9623 190.084 64.7496 185.259 88.1712C181.614 105.879 172.9 126.925 161.021 147.523C148.842 168.641 134.897 187.247 121.09 199.315C103.619 214.587 86.7284 220.114 77.8833 215.013C69.3003 210.067 66.0181 193.846 70.1356 172.161C73.6145 153.838 82.3451 131.349 94.977 109.438L94.9811 109.438Z" clip-rule="evenodd"/><path fill-rule="evenodd" stroke="#00D8FF" stroke-width="8.911" d="M95.0123 147.578C82.4633 125.904 73.9194 103.962 70.3531 85.7517C66.0602 63.8109 69.0954 47.0355 77.7401 42.0315C86.7485 36.8163 103.792 42.866 121.674 58.7437C135.194 70.7479 149.077 88.8052 160.99 109.383C173.204 130.481 182.358 151.856 185.919 169.844C190.425 192.608 186.778 210.001 177.941 215.116C169.367 220.08 153.676 214.825 136.945 200.427C122.809 188.263 107.685 169.468 95.0123 147.578Z" clip-rule="evenodd"/></svg>
        </g>
         
        <g transform="translate(300, 0)">
          <svg width="256" height="256" viewBox="0 0 256 256" fill="none" xmlns="http://www.w3.org/2000/svg">
<rect width="256" height="256" rx="60" fill="#242938"/>
<path d="M34.25 61.125L127.325 28L222.85 60.6125L207.412 183.7L127.325 228L48.5375 184.275L34.25 61.125Z" fill="#E23237"/>
<path d="M222.85 60.6125L127.325 28V228L207.412 183.7L222.85 60.6125Z" fill="#B52E31"/>
<path d="M127.469 51.375L69.4688 180.375L91.1125 179.937L102.8 150.788H154.675L167.375 180.163L188.012 180.6L127.469 51.375ZM127.612 92.7875L147.237 133.769H110.5L127.669 92.7875H127.612Z" fill="white"/>
</svg>

        </g>
         
        <g transform="translate(600, 0)">
          <svg width="256" height="256" viewBox="0 0 256 256" fill="none" xmlns="http://www.w3.org/2000/svg">
<rect width="256" height="256" rx="60" fill="#F0DB4F"/>
<path d="M67.3117 213.932L86.9027 202.076C90.6821 208.777 94.1202 214.447 102.367 214.447C110.272 214.447 115.256 211.355 115.256 199.327V117.529H139.314V199.667C139.314 224.584 124.708 235.926 103.398 235.926C84.1533 235.926 72.9819 225.959 67.3113 213.93" fill="#323330"/>
<path d="M152.381 211.354L171.969 200.013C177.126 208.434 183.828 214.62 195.684 214.62C205.653 214.62 212.009 209.636 212.009 202.762C212.009 194.514 205.479 191.592 194.481 186.782L188.468 184.203C171.111 176.815 159.597 167.535 159.597 147.945C159.597 129.901 173.345 116.153 194.826 116.153C210.12 116.153 221.118 121.481 229.022 135.4L210.291 147.429C206.166 140.04 201.7 137.119 194.826 137.119C187.78 137.119 183.312 141.587 183.312 147.429C183.312 154.646 187.78 157.568 198.09 162.037L204.104 164.614C224.553 173.379 236.067 182.313 236.067 202.418C236.067 224.072 219.055 235.928 196.2 235.928C173.861 235.928 159.426 225.274 152.381 211.354" fill="#323330"/>
</svg>

        </g>
         
        <g transform="translate(900, 0)">
          <svg xmlns="http://www.w3.org/2000/svg" width="256" height="256" fill="none" viewBox="0 0 256 256"><rect width="256" height="256" fill="#007ACC" rx="60"/><path fill="#fff" d="M56.6112 128.849L56.5299 139.333H73.1902H89.8505L89.8505 186.673V234.012H101.635H113.419V186.673L113.419 139.333H130.079H146.739V129.052C146.739 123.363 146.618 118.609 146.455 118.487C146.333 118.325 126.056 118.243 101.472 118.284L56.7331 118.406L56.6112 128.849Z"/><path fill="#fff" d="M206.567 118.108C213.068 119.734 218.026 122.619 222.577 127.332C224.934 129.852 228.428 134.444 228.713 135.541C228.794 135.866 217.66 143.343 210.915 147.528C210.671 147.691 209.695 146.634 208.598 145.009C205.307 140.214 201.853 138.141 196.57 137.776C188.809 137.247 183.811 141.311 183.852 148.097C183.852 150.088 184.136 151.266 184.949 152.892C186.655 156.427 189.825 158.54 199.781 162.847C218.107 170.731 225.949 175.932 230.826 183.327C236.271 191.576 237.49 204.742 233.792 214.535C229.729 225.181 219.651 232.414 205.469 234.812C201.081 235.584 190.678 235.462 185.965 234.609C175.684 232.78 165.932 227.701 159.918 221.037C157.561 218.436 152.969 211.65 153.254 211.162C153.375 211 154.432 210.35 155.61 209.659C156.748 209.009 161.056 206.53 165.119 204.173L172.474 199.906L174.018 202.182C176.172 205.473 180.885 209.984 183.73 211.487C191.897 215.795 203.113 215.185 208.639 210.228C210.996 208.074 211.971 205.839 211.971 202.548C211.971 199.581 211.605 198.281 210.061 196.046C208.07 193.202 204.007 190.804 192.466 185.806C179.26 180.117 173.571 176.582 168.37 170.974C165.363 167.724 162.518 162.522 161.34 158.174C160.365 154.558 160.121 145.496 160.893 141.839C163.615 129.08 173.246 120.181 187.143 117.539C191.654 116.686 202.137 117.011 206.567 118.108Z"/></svg>
        </g>
         
        <g transform="translate(1200, 0)">
          <svg xmlns="http://www.w3.org/2000/svg" width="256" height="256" fill="none" viewBox="0 0 256 256"><rect width="256" height="256" fill="#5865F2" rx="60"/><path fill="#98A0F7" fill-rule="evenodd" d="M149.541 226.539C178.626 226.516 207.754 226.692 236.881 226.539L245.105 181.333H10L19.303 226.539C62.7124 226.255 106.151 226.572 149.541 226.539Z" clip-rule="evenodd"/><path fill="#98A0F7" fill-rule="evenodd" d="M215.716 183.071H39.3879V123.93C39.3879 72.0546 78.861 30 127.552 30C176.243 30 215.716 72.0546 215.716 123.93V183.071Z" clip-rule="evenodd"/><path fill="#fff" fill-rule="evenodd" d="M220.883 151.223V65.4102V151.223ZM34.7578 151.223V65.4102Z" clip-rule="evenodd"/><path stroke="#202225" stroke-linecap="round" stroke-linejoin="round" stroke-width="3.37" d="M34.7578 151.223V65.4102M220.883 151.223V65.4102V151.223Z"/><path fill="#fff" fill-rule="evenodd" d="M225.781 118.172H29.8594C26.2539 118.172 23.3281 128.297 23.3281 140.785C23.3281 153.277 26.2539 163.398 29.8594 163.398H225.781C229.387 163.398 232.312 153.277 232.312 140.785C232.312 128.297 229.387 118.172 225.781 118.172Z" clip-rule="evenodd"/><path fill="#fff" fill-rule="evenodd" d="M145.727 111.754C136.949 124.848 118.691 124.848 109.914 111.754C105.781 105.594 99.1133 101.938 92.0039 101.938H72.2539C64.168 101.938 57.6172 108.922 57.6172 117.535V173.254H198.027V117.535C198.027 108.922 191.473 101.938 183.387 101.938H163.637C156.527 101.938 149.859 105.594 145.727 111.754Z" clip-rule="evenodd"/><path fill="#fff" fill-rule="evenodd" d="M137.617 97.4453C137.617 91.6836 133.23 87.0078 127.82 87.0078C122.41 87.0078 118.023 91.6836 118.023 97.4453C118.023 103.207 122.41 107.883 127.82 107.883C133.23 107.883 137.617 103.207 137.617 97.4453Z" clip-rule="evenodd"/><path fill="#000" fill-rule="evenodd" d="M96.8008 140.207C96.8008 133.48 91.6836 128.027 85.3711 128.027C79.0586 128.027 73.9414 133.48 73.9414 140.207C73.9414 146.93 79.0586 152.383 85.3711 152.383C91.6836 152.383 96.8008 146.93 96.8008 140.207ZM181.699 140.207C181.699 133.48 176.582 128.027 170.27 128.027C163.957 128.027 158.84 133.48 158.84 140.207C158.84 146.93 163.957 152.383 170.27 152.383C176.582 152.383 181.699 146.93 181.699 140.207Z" clip-rule="evenodd"/><path fill="#fff" fill-rule="evenodd" d="M202.922 209.551C202.922 206.672 200.73 204.332 198.027 204.332C195.32 204.332 193.129 206.672 193.129 209.551C193.129 212.434 195.32 214.77 198.027 214.77C200.73 214.77 202.922 212.434 202.922 209.551ZM186.598 209.551C186.598 206.672 184.406 204.332 181.699 204.332C178.992 204.332 176.801 206.672 176.801 209.551C176.801 212.434 178.992 214.77 181.699 214.77C184.406 214.77 186.598 212.434 186.598 209.551ZM170.27 209.551C170.27 206.672 168.078 204.332 165.371 204.332C162.668 204.332 160.473 206.672 160.473 209.551C160.473 212.434 162.668 214.77 165.371 214.77C168.078 214.77 170.27 212.434 170.27 209.551Z" clip-rule="evenodd"/></svg>
        </g>
        
  </svg>
  